<svg version="1" xmlns="http://www.w3.org/2000/svg" width="933.333" height="933.333" viewBox="0 0 700.000000 700.000000"><path d="M325 5.1C242 11 164.5 46.5 105.5 105.5 56.2 155 23.2 217.3 10.1 286c-5.8 30.4-7.3 73.1-3.8 103 7.1 58.4 28.2 113.9 61.3 160.5 6.5 9.2 7.9 10.6 8.5 9 .5-1.1 2.8-8.3 5.2-15.9l4.3-14 17.4 24.8 17.5 24.8 30.1-.5 30.1-.5-17.9 24c-13.9 18.6-17.8 24.5-17.4 26.2.5 2.2 17.5 14 32.1 22.4 57.9 33.1 126.7 49.4 191.2 45.3 51.4-3.2 93.8-14.6 138.4-37.2 15.3-7.7 34.8-19.7 47.3-29 7.5-5.5 8.4-6.6 9-10.1.4-2.4.2-4.6-.5-5.4-.6-.7-10.8-8.2-22.7-16.5-11.9-8.4-22.7-16-23.9-16.9-2.1-1.6-1.2-2 26.5-10.5 15.8-4.9 28.8-8.9 28.9-9 .2-.1 4.2-12.9 9-28.4 4.9-15.6 9-27.5 9.2-26.6.2 1 .6 1.3 1 .7.3-.5 8 9.5 17.1 22.4 15.5 21.9 16.7 23.4 19.6 23.4 2.8 0 3.7-.8 8.1-7.3 31.2-45.3 51.1-98.7 57.9-155.7 2.4-19.8 2.4-58.1 0-78-6.7-56.3-26.4-109.4-57.7-155.5-3.7-5.5-8.1-11.5-9.6-13.3l-2.8-3.3-19 14.1c-10.4 7.8-20.2 15.1-21.8 16.2l-2.7 1.9.6-30.3.6-30.3-24.2-17c-13.3-9.3-24.4-17.3-24.6-17.6-.2-.4 3.9-1.9 9.1-3.4 5.2-1.6 9.5-3.2 9.5-3.6 0-1-22.7-15.6-33.8-21.7C458.3 14.8 392.1.3 325 5.1zm18.5 159.4c4.3 16.8 7.9 30.5 7.9 30.5.1 0 4.4-.9 9.6-2.1 6.9-1.5 13-2.1 22-2.1 16.2-.1 26.7 2.4 41 9.4 24 11.9 38 33.8 38 59.3 0 15.1-4.7 28.1-14.9 41.5l-5 6.5 3.2.8c23.6 6.3 34.4 11.7 47.1 23.6 8.5 8.1 14.7 18.1 18.7 30.3 3.2 9.6 3.4 11.2 3.3 22.8-.1 10.6-.5 13.7-2.7 20.5-4 12.2-11.7 24.4-22.2 35.1-16.2 16.5-31.5 24.5-62.2 32.4l-4.1 1 7.8 30.7c4.4 16.9 7.7 30.9 7.5 31.1-.6.7-35.7 9.3-36.1 8.9-.2-.2-3.9-13.8-8.1-30.3-4.2-16.4-7.8-30.1-8-30.3-.2-.3-29.3 6.9-29.3 7.3 0 0 3.6 13.9 7.9 30.7l7.8 30.7-15.6 4c-8.6 2.3-16.8 4.4-18.3 4.7-3.1.8-1.9 4.2-11.3-31.6-4-15.4-7.5-28.2-7.7-28.5-.3-.2-17.2 3.9-37.7 9.2-20.5 5.2-37.4 9.4-37.6 9.2-.2-.2-.7-10.7-1.1-23.3l-.7-23 13.7-3.4c15.5-3.8 19.5-5.9 21.5-11.6 1.3-3.9.9-5.9-16.4-73-26.6-103.9-26.2-102.4-29.2-106.3-3-3.9-9.3-7.1-14.1-7.2-1.8 0-10.5 1.9-19.2 4.2-8.8 2.3-16.2 3.9-16.4 3.7-.2-.2-2.6-9-5.4-19.6l-5-19.1 3.7-1c2-.5 19-4.9 37.9-9.7l34.3-8.8-.6-2.6c-.3-1.4-3.9-15.2-7.9-30.6-6.3-24.2-7-28.1-5.7-28.7 3.7-1.8 34.5-8.8 35.1-8.1.4.4 4.1 13.8 8.1 29.6 4.1 15.9 7.6 29.2 7.9 29.7.7 1.1 29-5.9 29-7.2 0-.6-3.4-14.3-7.6-30.5-4.1-16.2-7.2-29.8-6.9-30.2.8-.8 31.3-8.9 34.1-9 1.8-.1 2.7 2.6 9.9 30.4zm265.8 134l16.3 23 30.2.3 30.2.2-17.8 23.8-17.9 23.7 9.3 27.9c5.2 15.4 9.2 28.2 8.9 28.4-.2.3-12.8-3.7-27.9-8.8-18.5-6.3-27.7-9.9-27.9-10.9-.3-1.2-.5-1-.6.4-.1 1.2-2.5 3.7-5.9 6.1-3.1 2.2-14 10.3-24.1 17.8l-18.4 13.8.7-30.3.8-30.4-24.7-17.4c-13.5-9.5-24.4-17.5-24.2-17.8.3-.2 13.2-4.3 28.7-9.2l28.3-8.7 8.6-27.8c5.7-18.6 9-27.6 9.8-27.4.7.2 8.6 10.6 17.6 23.3zm-462.7 10.7c.5 0 8.1 10.2 16.9 22.7l16.1 22.6 30.3-.4 30.2-.3-17.3 23.3c-9.6 12.9-17.7 23.9-18.1 24.5-.3.6 3.6 13.6 8.8 28.9 5.3 15.3 9.4 27.9 9.2 28.1-.6.6-55.2-17.9-55.6-18.9-.1-.4-.8-.2-1.5.6-1 1.3-26.9 20.9-42.4 32.1l-5.4 3.9.3-30.2.3-30.3-23.6-16.6C81.9 390 71.1 382 70.9 381.5c-.1-.6 12.2-4.9 27.6-9.7 15.3-4.8 28.1-9.1 28.4-9.7.4-.6 4.5-13.2 9.1-28.1 4.6-14.9 8.7-26.6 9-25.9.4.6 1.1 1.1 1.6 1.1z"/><path d="M319.3 247.9c-12.2 3.1-22.4 5.9-22.7 6.2-.3.2 3.7 16.9 8.9 36.9 5.2 20.1 9.5 36.6 9.5 36.7.1 1.8 44.5-10.3 53-14.4 9.4-4.5 19.3-14.1 23.6-22.8 2.4-5 2.9-7.2 2.9-13.5-.1-12.8-6.2-22.9-17.6-29-8.6-4.5-14.9-6-25.9-5.9-8.1.1-12.7.9-31.7 5.8zM382 351.7c-5 .8-55.5 13.6-56.3 14.3-.6.5 18.8 79.1 19.9 80.8.2.4 49.2-12.4 55.2-14.4 16.2-5.5 30.8-17.8 37.1-31.4 5.5-11.8 2.5-26.6-7.2-36.3-9.9-10-31.7-15.8-48.7-13zM592.1 280.6c0 1.1.3 1.4.6.6.3-.7.2-1.6-.1-1.9-.3-.4-.6.2-.5 1.3zM593.1 286.6c0 1.1.3 1.4.6.6.3-.7.2-1.6-.1-1.9-.3-.4-.6.2-.5 1.3zM594.1 292.6c0 1.1.3 1.4.6.6.3-.7.2-1.6-.1-1.9-.3-.4-.6.2-.5 1.3zM596.1 305.6c0 1.1.3 1.4.6.6.3-.7.2-1.6-.1-1.9-.3-.4-.6.2-.5 1.3zM597.1 311.6c0 1.1.3 1.4.6.6.3-.7.2-1.6-.1-1.9-.3-.4-.6.2-.5 1.3zM599.1 324.6c0 1.1.3 1.4.6.6.3-.7.2-1.6-.1-1.9-.3-.4-.6.2-.5 1.3zM600.1 330.6c0 1.1.3 1.4.6.6.3-.7.2-1.6-.1-1.9-.3-.4-.6.2-.5 1.3zM601.1 336.6c0 1.1.3 1.4.6.6.3-.7.2-1.6-.1-1.9-.3-.4-.6.2-.5 1.3zM602.1 343.6c0 1.1.3 1.4.6.6.3-.7.2-1.6-.1-1.9-.3-.4-.6.2-.5 1.3zM603.1 349.6c0 1.1.3 1.4.6.6.3-.7.2-1.6-.1-1.9-.3-.4-.6.2-.5 1.3zM604.1 355.6c0 1.1.3 1.4.6.6.3-.7.2-1.6-.1-1.9-.3-.4-.6.2-.5 1.3zM605.1 362.6c0 1.1.3 1.4.6.6.3-.7.2-1.6-.1-1.9-.3-.4-.6.2-.5 1.3zM606.1 368.6c0 1.1.3 1.4.6.6.3-.7.2-1.6-.1-1.9-.3-.4-.6.2-.5 1.3zM607.1 374.6c0 1.1.3 1.4.6.6.3-.7.2-1.6-.1-1.9-.3-.4-.6.2-.5 1.3zM608.1 381.6c0 1.1.3 1.4.6.6.3-.7.2-1.6-.1-1.9-.3-.4-.6.2-.5 1.3zM609.1 387.6c0 1.1.3 1.4.6.6.3-.7.2-1.6-.1-1.9-.3-.4-.6.2-.5 1.3zM610.1 393.6c0 1.1.3 1.4.6.6.3-.7.2-1.6-.1-1.9-.3-.4-.6.2-.5 1.3zM146.1 314.6c0 1.1.3 1.4.6.6.3-.7.2-1.6-.1-1.9-.3-.4-.6.2-.5 1.3zM147.1 320.6c0 1.1.3 1.4.6.6.3-.7.2-1.6-.1-1.9-.3-.4-.6.2-.5 1.3zM149.1 333.6c0 1.1.3 1.4.6.6.3-.7.2-1.6-.1-1.9-.3-.4-.6.2-.5 1.3zM150.1 339.6c0 1.1.3 1.4.6.6.3-.7.2-1.6-.1-1.9-.3-.4-.6.2-.5 1.3zM151.1 345.6c0 1.1.3 1.4.6.6.3-.7.2-1.6-.1-1.9-.3-.4-.6.2-.5 1.3zM152.1 352.6c0 1.1.3 1.4.6.6.3-.7.2-1.6-.1-1.9-.3-.4-.6.2-.5 1.3zM153.1 358.6c0 1.1.3 1.4.6.6.3-.7.2-1.6-.1-1.9-.3-.4-.6.2-.5 1.3zM155.1 371.6c0 1.1.3 1.4.6.6.3-.7.2-1.6-.1-1.9-.3-.4-.6.2-.5 1.3zM156.1 377.6c0 1.1.3 1.4.6.6.3-.7.2-1.6-.1-1.9-.3-.4-.6.2-.5 1.3zM157.1 383.6c0 1.1.3 1.4.6.6.3-.7.2-1.6-.1-1.9-.3-.4-.6.2-.5 1.3zM158.1 390.6c0 1.1.3 1.4.6.6.3-.7.2-1.6-.1-1.9-.3-.4-.6.2-.5 1.3zM159.1 396.6c0 1.1.3 1.4.6.6.3-.7.2-1.6-.1-1.9-.3-.4-.6.2-.5 1.3zM160.1 402.6c0 1.1.3 1.4.6.6.3-.7.2-1.6-.1-1.9-.3-.4-.6.2-.5 1.3zM162.1 415.6c0 1.1.3 1.4.6.6.3-.7.2-1.6-.1-1.9-.3-.4-.6.2-.5 1.3zM163.1 421.6c0 1.1.3 1.4.6.6.3-.7.2-1.6-.1-1.9-.3-.4-.6.2-.5 1.3zM165.1 434.6c0 1.1.3 1.4.6.6.3-.7.2-1.6-.1-1.9-.3-.4-.6.2-.5 1.3zM591.1 511.6c0 1.1.3 1.4.6.6.3-.7.2-1.6-.1-1.9-.3-.4-.6.2-.5 1.3zM592.1 518.6c0 1.1.3 1.4.6.6.3-.7.2-1.6-.1-1.9-.3-.4-.6.2-.5 1.3zM593.1 524.6c0 1.1.3 1.4.6.6.3-.7.2-1.6-.1-1.9-.3-.4-.6.2-.5 1.3zM594.1 530.6c0 1.1.3 1.4.6.6.3-.7.2-1.6-.1-1.9-.3-.4-.6.2-.5 1.3zM86.1 533.6c0 1.1.3 1.4.6.6.3-.7.2-1.6-.1-1.9-.3-.4-.6.2-.5 1.3zM595.1 537.6c0 1.1.3 1.4.6.6.3-.7.2-1.6-.1-1.9-.3-.4-.6.2-.5 1.3zM87.1 539.6c0 1.1.3 1.4.6.6.3-.7.2-1.6-.1-1.9-.3-.4-.6.2-.5 1.3zM596.1 543.6c0 1.1.3 1.4.6.6.3-.7.2-1.6-.1-1.9-.3-.4-.6.2-.5 1.3zM597.1 549.6c0 1.1.3 1.4.6.6.3-.7.2-1.6-.1-1.9-.3-.4-.6.2-.5 1.3zM89.1 552.6c0 1.1.3 1.4.6.6.3-.7.2-1.6-.1-1.9-.3-.4-.6.2-.5 1.3zM598.1 556.6c0 1.1.3 1.4.6.6.3-.7.2-1.6-.1-1.9-.3-.4-.6.2-.5 1.3zM90.1 558.6c0 1.1.3 1.4.6.6.3-.7.2-1.6-.1-1.9-.3-.4-.6.2-.5 1.3zM599.1 562.6c0 1.1.3 1.4.6.6.3-.7.2-1.6-.1-1.9-.3-.4-.6.2-.5 1.3zM91.1 564.6c0 1.1.3 1.4.6.6.3-.7.2-1.6-.1-1.9-.3-.4-.6.2-.5 1.3zM600.1 568.6c0 1.1.3 1.4.6.6.3-.7.2-1.6-.1-1.9-.3-.4-.6.2-.5 1.3zM92.1 571.6c0 1.1.3 1.4.6.6.3-.7.2-1.6-.1-1.9-.3-.4-.6.2-.5 1.3zM601.1 575.6c0 1.1.3 1.4.6.6.3-.7.2-1.6-.1-1.9-.3-.4-.6.2-.5 1.3zM93.1 577.6c0 1.1.3 1.4.6.6.3-.7.2-1.6-.1-1.9-.3-.4-.6.2-.5 1.3zM602.1 581.6c0 1.1.3 1.4.6.6.3-.7.2-1.6-.1-1.9-.3-.4-.6.2-.5 1.3z"/></svg>