<?xml version="1.0" encoding="UTF-8"?>
<!DOCTYPE svg PUBLIC "-//W3C//DTD SVG 1.1//EN" "http://www.w3.org/Graphics/SVG/1.1/DTD/svg11.dtd">
<svg version="1.2" width="262.5mm" height="265mm" viewBox="0 0 26250 26500" preserveAspectRatio="xMidYMid" fill-rule="evenodd" stroke-width="28.222" stroke-linejoin="round" xmlns="http://www.w3.org/2000/svg" xmlns:ooo="http://xml.openoffice.org/svg/export" xmlns:xlink="http://www.w3.org/1999/xlink" xmlns:presentation="http://sun.com/xmlns/staroffice/presentation" xmlns:smil="http://www.w3.org/2001/SMIL20/" xmlns:anim="urn:oasis:names:tc:opendocument:xmlns:animation:1.0" xml:space="preserve">
  <g class="SlideGroup">
  <g>
   <g id="container-id1">
    <g id="id1" class="Slide" clip-path="url(#presentation_clip_path)">
     <g class="Page">
      <g class="com.sun.star.drawing.ClosedBezierShape">
       <g id="id3">
        <rect class="BoundingBox" stroke="none" fill="none" x="1651" y="165" width="22941" height="26253"/>
        <path fill="rgb(76,202,71)" stroke="none" d="M 24548,11864 C 24463,12068 24264,12201 24043,12201 L 18052,12201 18052,25869 C 18052,26171 17807,26416 17506,26416 L 8758,26416 C 8456,26416 8211,26171 8211,25869 L 8211,12201 2198,12201 C 1977,12201 1778,12068 1692,11865 1608,11660 1654,11425 1811,11269 L 12718,326 C 12820,223 12959,165 13105,165 13250,165 13389,223 13492,325 L 24430,11268 C 24587,11424 24634,11659 24548,11864 Z"/>
       </g>
      </g>
     </g>
    </g>
   </g>
  </g>
 </g>
</svg>