<svg height="24" viewBox="0 0 24 24" width="24" xmlns="http://www.w3.org/2000/svg"><path d="m7.76063448 24c-.72040691 0-1.30441211-.5541898-1.30441211-1.2378176l.00057108-8.6647231h-4.15238134c-.72040692 0-1.30441211-.5541898-1.30441211-1.2378176 0-.2789074.09926083-.5496408.28169324-.768317l9.69556176-11.62177446c.4471587-.5359955 1.2675392-.62651846 1.8323713-.20218869.0790143.05935949.1505134.12720829.2130664.20218869l9.6955617 11.62177446c.4471587.5359955.3517656 1.314493-.2130664 1.7388227-.230441.1731187-.5157399.2673119-.8096525.2673119h-4.1512391l-.0005711 8.6647231c0 .6836278-.5840052 1.2378176-1.3044121 1.2378176z" fill-rule="evenodd"/></svg>