<?xml version="1.0" encoding="utf-8"?>
<!-- Generator: Adobe Illustrator 19.2.1, SVG Export Plug-In . SVG Version: 6.00 Build 0)  -->
<svg version="1.1" id="Layer_1" xmlns="http://www.w3.org/2000/svg" xmlns:xlink="http://www.w3.org/1999/xlink" x="0px" y="0px"
	 viewBox="0 0 64 64" style="enable-background:new 0 0 64 64;" xml:space="preserve">
<metadata><?xpacket begin="﻿" id="W5M0MpCehiHzreSzNTczkc9d"?>
<x:xmpmeta xmlns:x="adobe:ns:meta/" x:xmptk="Adobe XMP Core 5.6-c111 79.158366, 2015/09/25-01:12:00        ">
   <rdf:RDF xmlns:rdf="http://www.w3.org/1999/02/22-rdf-syntax-ns#">
      <rdf:Description rdf:about=""/>
   </rdf:RDF>
</x:xmpmeta>
                                                                                                    
                                                                                                    
                                                                                                    
                                                                                                    
                                                                                                    
                                                                                                    
                                                                                                    
                                                                                                    
                                                                                                    
                                                                                                    
                                                                                                    
                                                                                                    
                                                                                                    
                                                                                                    
                                                                                                    
                                                                                                    
                                                                                                    
                                                                                                    
                                                                                                    
                                                                                                    
                           
<?xpacket end="w"?></metadata>
<style type="text/css">
	.st0{fill:none;}
	.st1{fill:#5B554D;}
</style>
<rect class="st0" width="64" height="64"/>
<g>
	<g>
		<g>
			<path class="st1" d="M9.1,63c-0.5,0-0.9-0.4-0.9-0.9V1.9C8.2,1.4,8.6,1,9.1,1S10,1.4,10,1.9v60.2C10,62.6,9.6,63,9.1,63z"/>
		</g>
	</g>
	<g>
		<g>
			<path class="st1" d="M36.2,38.3c-0.2,0-0.4-0.1-0.5-0.2c-0.2-0.2-0.4-0.4-0.4-0.7c0-2.5-0.8-4.2-2.3-5.1
				c-5-2.9-17.1,2.6-21.4,4.9c-0.4,0.2-1,0.1-1.2-0.3c-0.2-0.4-0.1-1,0.3-1.2c0.7-0.4,16.3-8.9,23.2-4.9c1.8,1.1,2.9,2.9,3.1,5.4
				c3.5-1.2,13-4.2,17-4.3V5.1C50.7,5.5,40.4,7,36.7,8.8C36.4,9,36.1,9,35.8,8.7c-0.3-0.2-0.4-0.6-0.3-0.9c0-0.1,0.4-2-1.2-3.3
				c-1.7-1.5-7-2.9-22.8,3.4c-0.4,0.2-1,0-1.2-0.5s0-1,0.5-1.2c12.7-5.1,21-6.2,24.6-3.1c1.3,1.1,1.7,2.4,1.8,3.5
				c5.5-2.1,17-3.4,17.5-3.5c0.2,0,0.5,0.1,0.7,0.2c0.2,0.2,0.3,0.4,0.3,0.7v28.8c0,0.3-0.1,0.5-0.3,0.7s-0.5,0.2-0.8,0.2
				c-2.2-0.5-12.3,2.5-18.2,4.5C36.4,38.3,36.3,38.3,36.2,38.3z"/>
		</g>
	</g>
	<g>
		<g>
			<path class="st1" d="M36.2,38.3L36.2,38.3c-0.5,0-0.9-0.4-0.9-0.9L35.4,8c0-0.5,0.4-0.9,0.9-0.9l0,0c0.5,0,0.9,0.4,0.9,0.9
				l-0.1,29.3C37.1,37.9,36.7,38.3,36.2,38.3z"/>
		</g>
	</g>
</g>
</svg>
