<?xml version="1.0" encoding="utf-8"?>
<!-- Generator: Adobe Illustrator 19.2.1, SVG Export Plug-In . SVG Version: 6.00 Build 0)  -->
<svg version="1.1" id="Layer_1" xmlns="http://www.w3.org/2000/svg" xmlns:xlink="http://www.w3.org/1999/xlink" x="0px" y="0px"
	 viewBox="0 0 64 64" style="enable-background:new 0 0 64 64;" xml:space="preserve">
<metadata><?xpacket begin="﻿" id="W5M0MpCehiHzreSzNTczkc9d"?>
<x:xmpmeta xmlns:x="adobe:ns:meta/" x:xmptk="Adobe XMP Core 5.6-c111 79.158366, 2015/09/25-01:12:00        ">
   <rdf:RDF xmlns:rdf="http://www.w3.org/1999/02/22-rdf-syntax-ns#">
      <rdf:Description rdf:about=""/>
   </rdf:RDF>
</x:xmpmeta>
                                                                                                    
                                                                                                    
                                                                                                    
                                                                                                    
                                                                                                    
                                                                                                    
                                                                                                    
                                                                                                    
                                                                                                    
                                                                                                    
                                                                                                    
                                                                                                    
                                                                                                    
                                                                                                    
                                                                                                    
                                                                                                    
                                                                                                    
                                                                                                    
                                                                                                    
                                                                                                    
                           
<?xpacket end="w"?></metadata>
<style type="text/css">
	.st0{fill:none;}
	.st1{fill:#5B554D;}
</style>
<rect class="st0" width="64" height="64"/>
<g>
	<g>
		<path class="st1" d="M32,63C14.9,63,1,49.1,1,32S14.9,1,32,1s31,13.9,31,31S49.1,63,32,63z M32,3C16,3,3,16,3,32s13,29,29,29
			s29-13,29-29S48,3,32,3z"/>
	</g>
	<g>
		<g>
			<path class="st1" d="M32,56.8C18.3,56.8,7.2,45.7,7.2,32S18.3,7.2,32,7.2s24.8,11.1,24.8,24.9C56.8,45.7,45.7,56.8,32,56.8z
				 M32,9.1C19.4,9.1,9.1,19.4,9.1,32S19.4,54.9,32,54.9S54.9,44.6,54.9,32S44.6,9.1,32,9.1z"/>
		</g>
	</g>
	<g>
		<path class="st1" d="M37.9,37.8c0.1,2-0.5,3.6-1.7,4.7c-0.7,0.7-1.6,1.1-2.7,1.3v1.7h-3v-1.7c-1.4-0.4-2.5-1.2-3.3-2.5
			c-0.7-1.1-1-2.4-1.1-4l3.4-0.2c0.2,1.4,0.5,2.4,1.1,3c0.4,0.5,0.9,0.7,1.5,0.7c0.8,0,1.4-0.4,1.9-1.1c0.2-0.4,0.4-0.9,0.4-1.6
			c0-1-0.4-1.9-1.3-2.9c-0.7-0.7-1.8-1.7-3.2-3c-1.1-1-1.9-2-2.4-2.9c-0.6-1.1-0.9-2.3-0.9-3.5s0.3-2.3,0.9-3.3
			c0.7-1.2,1.8-2,3.1-2.4v-1.5h3V20c1,0.2,1.7,0.6,2.4,1.2c1.1,1,1.7,2.4,1.8,4l-3.4,0.6c-0.1-1-0.4-1.7-0.8-2.3
			c-0.3-0.4-0.8-0.6-1.4-0.6c-0.7,0-1.1,0.3-1.5,0.9c-0.3,0.5-0.4,1-0.4,1.7c0,1.1,0.5,2.2,1.4,3.3c0.3,0.4,0.9,0.9,1.6,1.5
			c0.8,0.7,1.4,1.2,1.7,1.4c0.9,0.9,1.6,1.8,2,2.6C37.5,35.7,37.9,36.8,37.9,37.8z"/>
	</g>
</g>
</svg>
