<?xml version="1.0" encoding="utf-8"?>
<!-- Generator: Adobe Illustrator 19.2.1, SVG Export Plug-In . SVG Version: 6.00 Build 0)  -->
<svg version="1.1" id="Layer_1" xmlns="http://www.w3.org/2000/svg" xmlns:xlink="http://www.w3.org/1999/xlink" x="0px" y="0px"
	 viewBox="0 0 64 64" style="enable-background:new 0 0 64 64;" xml:space="preserve">
<metadata><?xpacket begin="﻿" id="W5M0MpCehiHzreSzNTczkc9d"?>
<x:xmpmeta xmlns:x="adobe:ns:meta/" x:xmptk="Adobe XMP Core 5.6-c111 79.158366, 2015/09/25-01:12:00        ">
   <rdf:RDF xmlns:rdf="http://www.w3.org/1999/02/22-rdf-syntax-ns#">
      <rdf:Description rdf:about=""/>
   </rdf:RDF>
</x:xmpmeta>
                                                                                                    
                                                                                                    
                                                                                                    
                                                                                                    
                                                                                                    
                                                                                                    
                                                                                                    
                                                                                                    
                                                                                                    
                                                                                                    
                                                                                                    
                                                                                                    
                                                                                                    
                                                                                                    
                                                                                                    
                                                                                                    
                                                                                                    
                                                                                                    
                                                                                                    
                                                                                                    
                           
<?xpacket end="w"?></metadata>
<style type="text/css">
	.st0{fill:none;}
	.st1{fill:#5B554D;}
</style>
<rect class="st0" width="64" height="64"/>
<g>
	<g>
		<g>
			<path class="st1" d="M22.2,60.3c-0.1,0-0.2,0-0.3,0c-12-4.3-20-15.7-20-28.4c0-11.7,6.9-22.5,17.5-27.4c0.4-0.2,0.9,0,1.1,0.4
				c0.2,0.4,0,0.9-0.4,1.1c-10,4.6-16.5,14.8-16.5,25.8c0,12,7.6,22.8,18.9,26.8c0.4,0.2,0.7,0.6,0.5,1.1
				C22.9,60.1,22.5,60.3,22.2,60.3z"/>
		</g>
		<g>
			<g>
				<path class="st1" d="M17.1,16.7c-0.1,0-0.2,0-0.3,0c-0.4-0.2-0.7-0.6-0.5-1.1l3.4-10.1L9.3,2.7c-0.5-0.1-0.7-0.6-0.6-1
					c0.1-0.5,0.6-0.7,1-0.6L21,4c0.2,0.1,0.4,0.2,0.5,0.4c0.1,0.2,0.1,0.5,0.1,0.7l-3.7,11C17.7,16.4,17.4,16.7,17.1,16.7z"/>
			</g>
		</g>
	</g>
	<g>
		<g>
			<path class="st1" d="M44.2,59.3c-0.3,0-0.6-0.2-0.8-0.5c-0.2-0.4,0-0.9,0.4-1.1c10-4.6,16.5-14.8,16.5-25.8
				c0-12-7.6-22.8-18.9-26.8C41.1,4.9,40.9,4.5,41,4c0.2-0.4,0.6-0.7,1.1-0.5c12,4.3,20,15.7,20,28.4c0,11.7-6.9,22.5-17.5,27.4
				C44.5,59.3,44.4,59.3,44.2,59.3z"/>
		</g>
		<g>
			<g>
				<path class="st1" d="M54.4,63c-0.1,0-0.1,0-0.2,0L43,60c-0.2-0.1-0.4-0.2-0.5-0.4c-0.1-0.2-0.1-0.5-0.1-0.7l3.7-11
					c0.2-0.4,0.6-0.7,1.1-0.5c0.4,0.2,0.7,0.6,0.5,1.1l-3.5,10.1l10.4,2.7c0.5,0.1,0.7,0.6,0.6,1C55.2,62.7,54.8,63,54.4,63z"/>
			</g>
		</g>
	</g>
</g>
</svg>
