<?xml version="1.0" encoding="utf-8"?>
<!-- Generator: Adobe Illustrator 19.2.1, SVG Export Plug-In . SVG Version: 6.00 Build 0)  -->
<svg version="1.1" id="Layer_1" xmlns="http://www.w3.org/2000/svg" xmlns:xlink="http://www.w3.org/1999/xlink" x="0px" y="0px"
	 viewBox="0 0 64 64" style="enable-background:new 0 0 64 64;" xml:space="preserve">
<metadata><?xpacket begin="﻿" id="W5M0MpCehiHzreSzNTczkc9d"?>
<x:xmpmeta xmlns:x="adobe:ns:meta/" x:xmptk="Adobe XMP Core 5.6-c111 79.158366, 2015/09/25-01:12:00        ">
   <rdf:RDF xmlns:rdf="http://www.w3.org/1999/02/22-rdf-syntax-ns#">
      <rdf:Description rdf:about=""/>
   </rdf:RDF>
</x:xmpmeta>
                                                                                                    
                                                                                                    
                                                                                                    
                                                                                                    
                                                                                                    
                                                                                                    
                                                                                                    
                                                                                                    
                                                                                                    
                                                                                                    
                                                                                                    
                                                                                                    
                                                                                                    
                                                                                                    
                                                                                                    
                                                                                                    
                                                                                                    
                                                                                                    
                                                                                                    
                                                                                                    
                           
<?xpacket end="w"?></metadata>
<style type="text/css">
	.st0{fill:none;}
	.st1{fill:#5B554D;}
</style>
<rect class="st0" width="64" height="64"/>
<g>
	<path class="st1" d="M8.8,59.7c-1.7,0-2.8-0.2-2.9-0.2c-0.4-0.1-0.6-0.3-0.7-0.7c-0.1-0.4,0.1-0.7,0.5-0.9c5.5-2.6,7.6-6.4,7.8-9.1
		c0.1-1.2-0.3-1.8-0.4-1.9C5.4,42.4,1,35.6,1,28.2c0-13.2,14.6-24,32.6-24c17.3,0,29.4,9.9,29.4,24c0,14-12.1,23.8-29.4,23.8
		c-1.5,0-3-0.3-4.4-0.6c-0.5-0.1-1.1-0.2-1.6-0.3C21.5,58.6,13.2,59.7,8.8,59.7z M33.6,6C16.6,6,2.7,16,2.7,28.2
		c0,6.8,4.1,13.1,11.1,17.2c0.9,0.5,1.3,1.8,1.3,3.4C15,50.2,14.4,54.5,9,58c4.2-0.1,12.1-1.2,17.7-8.2c0.2-0.2,0.5-0.4,0.8-0.3
		c0.7,0.1,1.4,0.2,2.1,0.4c1.3,0.3,2.7,0.5,4.1,0.5c16.3,0,27.7-9.1,27.7-22.2C61.3,15.1,49.9,6,33.6,6z"/>
</g>
</svg>
