<svg height="20" viewBox="0 0 20 20" width="20" xmlns="http://www.w3.org/2000/svg"><path d="m8.80620903 13.7119009c.22577556.0536437.38267855.0968159.54216786.1279549 1.13491251.2217396 2.28218191.3401416 3.43989221.3224135.8039603-.0124005 1.6135721-.0144214 2.4088155-.1111454.7615255-.0925905 1.519411-.2632584 2.2563187-.472873.4642911-.1319966.8981212-.3803744 1.3226597-.6148819.1494314-.0825783.309687-.2706068.3276954-.4251999.0461705-.3972758.0154221-.8027268.0154221-1.2336218-.1995293.1030621-.3677354.2014395-.5454247.2798843-.9780095.4318135-2.0151211.6609016-3.0752221.7972154-1.2432503.1598289-2.4930143.1837113-3.7453645.126026-.0991421-.0045009-.2104493.0035824-.298384.0427129-.6913119.3068898-1.3773554.6245267-2.06723045.9345396-.16820615.0755972-.34436281.1351197-.58134572.2269754m-7.3611261-2.3168757c.08304938.2457139.16322509.430252.2072882.6225059.14540828.6344471.58747624.9913064 1.18759668 1.2100148.95511585.3480412 1.94749378.3819359 2.94427802.2833748 1.45963849-.1443053 2.84906338-.545439 4.18005674-1.137357 1.03500423-.4601969 1.97335693-1.055238 2.77463503-1.8387669.9339464-.91322914 1.0848147-1.84593167.4951353-2.78488039-.3637123.39350972-.7093203.82670108-1.1168083 1.1967876-.9795422.88934665-2.14817256 1.49449189-3.39094391 1.97425399-1.46806796.5668414-2.99035271.9007368-4.57394266.9325189-.91047801.0182792-1.80812024-.0880896-2.7072951-.4584517m11.37958617 3.6020284c-1.6564857.0234232-3.29889029-.1598288-4.87098551-.7048086-.47195425-.1636868-.89563066-.1497247-1.35781439-.0739438-1.18836299.1948259-2.37979123.2159527-3.5557016-.0672383-.60395201-.1454076-1.19803771-.359615-1.60993203-.8387342-.21753767-.2530624-.403848-.5515015-.52186051-.8586669-.27472393-.7155557-.4787553-1.4560043-.75003081-2.1729378-.30365232-.80226748-.15173037-1.53279567.29493549-2.23117437.57282046-.89559284 1.39545961-1.54602288 2.30689552-2.09458497 1.72574138-1.03870398 3.61106786-1.65900536 5.63097841-1.88322506 1.18692614-.13172104 2.36935023-.11031867 3.50876483.30624682.8367202.3058794 1.4294648.83551923 1.6883835 1.68196928.1321893.43190538.2993418.85407407.4300943 1.28634688.0497147.16451351.1375535.20998207.3006828.21916764 1.1070378.06255371 2.1986536.21714681 3.2609577.53322219.6491646.19326435 1.2754356.4312624 1.8083119.85333923.3915869.31019662.6053888.69902169.6028025 1.19348076-.0034484.6736696-.0288326 1.3486251.0059389 2.0205493.0409021.789867-.3518343 1.300952-1.02418 1.6748046-.667173.3709132-1.387988.6068904-2.1326546.7739759-1.3162418.2954078-2.6539404.4051754-4.0155864.3822114" fill="#1d1d1b" fill-rule="evenodd"/></svg>