<svg xmlns="http://www.w3.org/2000/svg" width="1em" height="1em" fill="currentColor" class="bi bi-heart" viewBox="0 0 20 20"><path fill-rule="evenodd" d="M8.806 13.712c.226.054.383.097.542.128 1.135.222 2.283.34 3.44.322.804-.012 1.614-.014 2.41-.11.76-.093 1.518-.264 2.255-.474.465-.132.899-.38 1.323-.615.15-.082.31-.27.328-.425.046-.397.015-.803.015-1.233-.2.103-.368.201-.545.28-.978.431-2.015.66-3.075.797-1.244.16-2.493.183-3.746.126a.685.685 0 0 0-.298.042c-.692.307-1.378.625-2.067.935-.169.076-.345.135-.582.227m-7.36-2.317c.082.246.162.43.206.623.146.634.588.99 1.188 1.21.955.348 1.947.381 2.944.283 1.46-.144 2.85-.546 4.18-1.137 1.035-.46 1.974-1.056 2.775-1.84.934-.912 1.085-1.845.495-2.784-.364.393-.71.827-1.117 1.197-.98.89-2.148 1.494-3.39 1.974-1.469.567-2.991.9-4.575.932-.91.019-1.808-.088-2.707-.458m11.38 3.602c-1.657.023-3.3-.16-4.871-.705-.472-.163-.896-.15-1.358-.074-1.188.195-2.38.216-3.556-.067-.604-.145-1.198-.36-1.61-.839a2.996 2.996 0 0 1-.522-.858c-.274-.716-.478-1.456-.75-2.173-.303-.803-.151-1.533.295-2.231.573-.896 1.396-1.546 2.307-2.095 1.726-1.039 3.611-1.659 5.631-1.883 1.187-.132 2.37-.11 3.509.306.837.306 1.43.836 1.688 1.682.132.432.3.854.43 1.286.05.165.138.21.301.22 1.107.062 2.199.217 3.261.533.65.193 1.275.431 1.808.853.392.31.606.7.603 1.194-.003.673-.029 1.348.006 2.02.041.79-.352 1.301-1.024 1.675-.667.37-1.388.607-2.133.774-1.316.295-2.654.405-4.015.382"/></svg>