<svg enable-background="new 0 0 1147 1147" height="1147" viewBox="0 0 1147 1147" width="1147" xmlns="http://www.w3.org/2000/svg"><path d="m0 0h1147v1147h-1147z" fill="#fff"/><g fill="#4dc846"><path d="m403 62h31v31h-31z" stroke-width=".31"/><path d="m434 62h31v31h-31z" stroke-width=".31"/><path d="m496 62h31v31h-31z" stroke-width=".31"/><path d="m589 62h31v31h-31z" stroke-width=".31"/><path d="m713 62h31v31h-31z" stroke-width=".31"/><path d="m310 93h31v31h-31z" stroke-width=".31"/><path d="m403 93h31v31h-31z" stroke-width=".31"/><path d="m465 93h31v31h-31z" stroke-width=".31"/><path d="m496 93h31v31h-31z" stroke-width=".31"/><path d="m558 93h31v31h-31z" stroke-width=".31"/><path d="m589 93h31v31h-31z" stroke-width=".31"/><path d="m620 93h31v31h-31z" stroke-width=".31"/><path d="m682 93h31v31h-31z" stroke-width=".31"/><path d="m713 93h31v31h-31z" stroke-width=".31"/><path d="m744 93h31v31h-31z" stroke-width=".31"/><path d="m310 124h31v31h-31z" stroke-width=".31"/><path d="m341 124h31v31h-31z" stroke-width=".31"/><path d="m372 124h31v31h-31z" stroke-width=".31"/><path d="m403 124h31v31h-31z" stroke-width=".31"/><path d="m465 124h31v31h-31z" stroke-width=".31"/><path d="m527 124h31v31h-31z" stroke-width=".31"/><path d="m558 124h31v31h-31z" stroke-width=".31"/><path d="m682 124h31v31h-31z" stroke-width=".31"/><path d="m713 124h31v31h-31z" stroke-width=".31"/><path d="m744 124h31v31h-31z" stroke-width=".31"/><path d="m806 124h31v31h-31z" stroke-width=".31"/><path d="m310 155h31v31h-31z" stroke-width=".31"/><path d="m372 155h31v31h-31z" stroke-width=".31"/><path d="m403 155h31v31h-31z" stroke-width=".31"/><path d="m589 155h31v31h-31z" stroke-width=".31"/><path d="m713 155h31v31h-31z" stroke-width=".31"/><path d="m341 186h31v31h-31z" stroke-width=".31"/><path d="m372 186h31v31h-31z" stroke-width=".31"/><path d="m403 186h31v31h-31z" stroke-width=".31"/><path d="m434 186h31v31h-31z" stroke-width=".31"/><path d="m465 186h31v31h-31z" stroke-width=".31"/><path d="m527 186h31v31h-31z" stroke-width=".31"/><path d="m620 186h31v31h-31z" stroke-width=".31"/><path d="m651 186h31v31h-31z" stroke-width=".31"/><path d="m713 186h31v31h-31z" stroke-width=".31"/><path d="m744 186h31v31h-31z" stroke-width=".31"/><path d="m775 186h31v31h-31z" stroke-width=".31"/><path d="m341 217h31v31h-31z" stroke-width=".31"/><path d="m372 217h31v31h-31z" stroke-width=".31"/><path d="m403 217h31v31h-31z" stroke-width=".31"/><path d="m434 217h31v31h-31z" stroke-width=".31"/><path d="m465 217h31v31h-31z" stroke-width=".31"/><path d="m496 217h31v31h-31z" stroke-width=".31"/><path d="m558 217h31v31h-31z" stroke-width=".31"/><path d="m620 217h31v31h-31z" stroke-width=".31"/><path d="m806 217h31v31h-31z" stroke-width=".31"/><path d="m310 248h31v31h-31z" stroke-width=".31"/><path d="m372 248h31v31h-31z" stroke-width=".31"/><path d="m434 248h31v31h-31z" stroke-width=".31"/><path d="m496 248h31v31h-31z" stroke-width=".31"/><path d="m558 248h31v31h-31z" stroke-width=".31"/><path d="m620 248h31v31h-31z" stroke-width=".31"/><path d="m682 248h31v31h-31z" stroke-width=".31"/><path d="m744 248h31v31h-31z" stroke-width=".31"/><path d="m806 248h31v31h-31z" stroke-width=".31"/><path d="m310 279h31v31h-31z" stroke-width=".31"/><path d="m620 279h31v31h-31z" stroke-width=".31"/><path d="m651 279h31v31h-31z" stroke-width=".31"/><path d="m682 279h31v31h-31z" stroke-width=".31"/><path d="m744 279h31v31h-31z" stroke-width=".31"/><path d="m62 310h31v31h-31z" stroke-width=".31"/><path d="m248 310h31v31h-31z" stroke-width=".31"/><path d="m310 310h31v31h-31z" stroke-width=".31"/><path d="m372 310h31v31h-31z" stroke-width=".31"/><path d="m434 310h31v31h-31z" stroke-width=".31"/><path d="m465 310h31v31h-31z" stroke-width=".31"/><path d="m496 310h31v31h-31z" stroke-width=".31"/><path d="m527 310h31v31h-31z" stroke-width=".31"/><path d="m589 310h31v31h-31z" stroke-width=".31"/><path d="m651 310h31v31h-31z" stroke-width=".31"/><path d="m682 310h31v31h-31z" stroke-width=".31"/><path d="m744 310h31v31h-31z" stroke-width=".31"/><path d="m837 310h31v31h-31z" stroke-width=".31"/><path d="m868 310h31v31h-31z" stroke-width=".31"/><path d="m961 310h31v31h-31z" stroke-width=".31"/><path d="m992 310h31v31h-31z" stroke-width=".31"/><path d="m1023 310h31v31h-31z" stroke-width=".31"/><path d="m62 341h31v31h-31z" stroke-width=".31"/><path d="m93 341h31v31h-31z" stroke-width=".31"/><path d="m155 341h31v31h-31z" stroke-width=".31"/><path d="m310 341h31v31h-31z" stroke-width=".31"/><path d="m403 341h31v31h-31z" stroke-width=".31"/><path d="m527 341h31v31h-31z" stroke-width=".31"/><path d="m620 341h31v31h-31z" stroke-width=".31"/><path d="m651 341h31v31h-31z" stroke-width=".31"/><path d="m744 341h31v31h-31z" stroke-width=".31"/><path d="m775 341h31v31h-31z" stroke-width=".31"/><path d="m899 341h31v31h-31z" stroke-width=".31"/><path d="m930 341h31v31h-31z" stroke-width=".31"/><path d="m62 372h31v31h-31z" stroke-width=".31"/><path d="m93 372h31v31h-31z" stroke-width=".31"/><path d="m155 372h31v31h-31z" stroke-width=".31"/><path d="m248 372h31v31h-31z" stroke-width=".31"/><path d="m310 372h31v31h-31z" stroke-width=".31"/><path d="m403 372h31v31h-31z" stroke-width=".31"/><path d="m527 372h31v31h-31z" stroke-width=".31"/><path d="m589 372h31v31h-31z" stroke-width=".31"/><path d="m744 372h31v31h-31z" stroke-width=".31"/><path d="m806 372h31v31h-31z" stroke-width=".31"/><path d="m837 372h31v31h-31z" stroke-width=".31"/><path d="m899 372h31v31h-31z" stroke-width=".31"/><path d="m930 372h31v31h-31z" stroke-width=".31"/><path d="m961 372h31v31h-31z" stroke-width=".31"/><path d="m992 372h31v31h-31z" stroke-width=".31"/><path d="m1023 372h31v31h-31z" stroke-width=".31"/><path d="m93 403h31v31h-31z" stroke-width=".31"/><path d="m124 403h31v31h-31z" stroke-width=".31"/><path d="m155 403h31v31h-31z" stroke-width=".31"/><path d="m217 403h31v31h-31z" stroke-width=".31"/><path d="m279 403h31v31h-31z" stroke-width=".31"/><path d="m341 403h31v31h-31z" stroke-width=".31"/><path d="m403 403h31v31h-31z" stroke-width=".31"/><path d="m434 403h31v31h-31z" stroke-width=".31"/><path d="m496 403h31v31h-31z" stroke-width=".31"/><path d="m527 403h31v31h-31z" stroke-width=".31"/><path d="m558 403h31v31h-31z" stroke-width=".31"/><path d="m651 403h31v31h-31z" stroke-width=".31"/><path d="m775 403h31v31h-31z" stroke-width=".31"/><path d="m806 403h31v31h-31z" stroke-width=".31"/><path d="m899 403h31v31h-31z" stroke-width=".31"/><path d="m930 403h31v31h-31z" stroke-width=".31"/><path d="m961 403h31v31h-31z" stroke-width=".31"/><path d="m992 403h31v31h-31z" stroke-width=".31"/><path d="m1023 403h31v31h-31z" stroke-width=".31"/><path d="m1054 403h31v31h-31z" stroke-width=".31"/><path d="m62 434h31v31h-31z" stroke-width=".31"/><path d="m93 434h31v31h-31z" stroke-width=".31"/><path d="m248 434h31v31h-31z" stroke-width=".31"/><path d="m310 434h31v31h-31z" stroke-width=".31"/><path d="m341 434h31v31h-31z" stroke-width=".31"/><path d="m372 434h31v31h-31z" stroke-width=".31"/><path d="m403 434h31v31h-31z" stroke-width=".31"/><path d="m465 434h31v31h-31z" stroke-width=".31"/><path d="m496 434h31v31h-31z" stroke-width=".31"/><path d="m558 434h31v31h-31z" stroke-width=".31"/><path d="m589 434h31v31h-31z" stroke-width=".31"/><path d="m620 434h31v31h-31z" stroke-width=".31"/><path d="m651 434h31v31h-31z" stroke-width=".31"/><path d="m682 434h31v31h-31z" stroke-width=".31"/><path d="m744 434h31v31h-31z" stroke-width=".31"/><path d="m868 434h31v31h-31z" stroke-width=".31"/><path d="m1023 434h31v31h-31z" stroke-width=".31"/><path d="m1054 434h31v31h-31z" stroke-width=".31"/><path d="m62 465h31v31h-31z" stroke-width=".31"/><path d="m93 465h31v31h-31z" stroke-width=".31"/><path d="m155 465h31v31h-31z" stroke-width=".31"/><path d="m310 465h31v31h-31z" stroke-width=".31"/><path d="m372 465h31v31h-31z" stroke-width=".31"/><path d="m403 465h31v31h-31z" stroke-width=".31"/><path d="m434 465h31v31h-31z" stroke-width=".31"/><path d="m496 465h31v31h-31z" stroke-width=".31"/><path d="m558 465h31v31h-31z" stroke-width=".31"/><path d="m620 465h31v31h-31z" stroke-width=".31"/><path d="m651 465h31v31h-31z" stroke-width=".31"/><path d="m682 465h31v31h-31z" stroke-width=".31"/><path d="m713 465h31v31h-31z" stroke-width=".31"/><path d="m744 465h31v31h-31z" stroke-width=".31"/><path d="m775 465h31v31h-31z" stroke-width=".31"/><path d="m868 465h31v31h-31z" stroke-width=".31"/><path d="m961 465h31v31h-31z" stroke-width=".31"/><path d="m992 465h31v31h-31z" stroke-width=".31"/><path d="m1054 465h31v31h-31z" stroke-width=".31"/><path d="m186 496h31v31h-31z" stroke-width=".31"/><path d="m248 496h31v31h-31z" stroke-width=".31"/><path d="m310 496h31v31h-31z" stroke-width=".31"/><path d="m496 496h31v31h-31z" stroke-width=".31"/><path d="m713 496h31v31h-31z" stroke-width=".31"/><path d="m744 496h31v31h-31z" stroke-width=".31"/><path d="m899 496h31v31h-31z" stroke-width=".31"/><path d="m930 496h31v31h-31z" stroke-width=".31"/><path d="m961 496h31v31h-31z" stroke-width=".31"/><path d="m1023 496h31v31h-31z" stroke-width=".31"/><path d="m62 527h31v31h-31z" stroke-width=".31"/><path d="m155 527h31v31h-31z" stroke-width=".31"/><path d="m186 527h31v31h-31z" stroke-width=".31"/><path d="m310 527h31v31h-31z" stroke-width=".31"/><path d="m341 527h31v31h-31z" stroke-width=".31"/><path d="m372 527h31v31h-31z" stroke-width=".31"/><path d="m403 527h31v31h-31z" stroke-width=".31"/><path d="m434 527h31v31h-31z" stroke-width=".31"/><path d="m465 527h31v31h-31z" stroke-width=".31"/><path d="m527 527h31v31h-31z" stroke-width=".31"/><path d="m620 527h31v31h-31z" stroke-width=".31"/><path d="m744 527h31v31h-31z" stroke-width=".31"/><path d="m775 527h31v31h-31z" stroke-width=".31"/><path d="m806 527h31v31h-31z" stroke-width=".31"/><path d="m837 527h31v31h-31z" stroke-width=".31"/><path d="m899 527h31v31h-31z" stroke-width=".31"/><path d="m930 527h31v31h-31z" stroke-width=".31"/><path d="m961 527h31v31h-31z" stroke-width=".31"/><path d="m992 527h31v31h-31z" stroke-width=".31"/><path d="m62 558h31v31h-31z" stroke-width=".31"/><path d="m186 558h31v31h-31z" stroke-width=".31"/><path d="m248 558h31v31h-31z" stroke-width=".31"/><path d="m279 558h31v31h-31z" stroke-width=".31"/><path d="m403 558h31v31h-31z" stroke-width=".31"/><path d="m465 558h31v31h-31z" stroke-width=".31"/><path d="m589 558h31v31h-31z" stroke-width=".31"/><path d="m682 558h31v31h-31z" stroke-width=".31"/><path d="m744 558h31v31h-31z" stroke-width=".31"/><path d="m775 558h31v31h-31z" stroke-width=".31"/><path d="m837 558h31v31h-31z" stroke-width=".31"/><path d="m899 558h31v31h-31z" stroke-width=".31"/><path d="m930 558h31v31h-31z" stroke-width=".31"/><path d="m961 558h31v31h-31z" stroke-width=".31"/><path d="m93 589h31v31h-31z" stroke-width=".31"/><path d="m124 589h31v31h-31z" stroke-width=".31"/><path d="m155 589h31v31h-31z" stroke-width=".31"/><path d="m279 589h31v31h-31z" stroke-width=".31"/><path d="m341 589h31v31h-31z" stroke-width=".31"/><path d="m403 589h31v31h-31z" stroke-width=".31"/><path d="m465 589h31v31h-31z" stroke-width=".31"/><path d="m527 589h31v31h-31z" stroke-width=".31"/><path d="m558 589h31v31h-31z" stroke-width=".31"/><path d="m589 589h31v31h-31z" stroke-width=".31"/><path d="m620 589h31v31h-31z" stroke-width=".31"/><path d="m651 589h31v31h-31z" stroke-width=".31"/><path d="m682 589h31v31h-31z" stroke-width=".31"/><path d="m744 589h31v31h-31z" stroke-width=".31"/><path d="m775 589h31v31h-31z" stroke-width=".31"/><path d="m806 589h31v31h-31z" stroke-width=".31"/><path d="m868 589h31v31h-31z" stroke-width=".31"/><path d="m899 589h31v31h-31z" stroke-width=".31"/><path d="m961 589h31v31h-31z" stroke-width=".31"/><path d="m992 589h31v31h-31z" stroke-width=".31"/><path d="m1054 589h31v31h-31z" stroke-width=".31"/><path d="m62 620h31v31h-31z" stroke-width=".31"/><path d="m248 620h31v31h-31z" stroke-width=".31"/><path d="m279 620h31v31h-31z" stroke-width=".31"/><path d="m372 620h31v31h-31z" stroke-width=".31"/><path d="m465 620h31v31h-31z" stroke-width=".31"/><path d="m527 620h31v31h-31z" stroke-width=".31"/><path d="m651 620h31v31h-31z" stroke-width=".31"/><path d="m682 620h31v31h-31z" stroke-width=".31"/><path d="m775 620h31v31h-31z" stroke-width=".31"/><path d="m806 620h31v31h-31z" stroke-width=".31"/><path d="m837 620h31v31h-31z" stroke-width=".31"/><path d="m930 620h31v31h-31z" stroke-width=".31"/><path d="m961 620h31v31h-31z" stroke-width=".31"/><path d="m992 620h31v31h-31z" stroke-width=".31"/><path d="m1054 620h31v31h-31z" stroke-width=".31"/><path d="m62 651h31v31h-31z" stroke-width=".31"/><path d="m93 651h31v31h-31z" stroke-width=".31"/><path d="m155 651h31v31h-31z" stroke-width=".31"/><path d="m217 651h31v31h-31z" stroke-width=".31"/><path d="m279 651h31v31h-31z" stroke-width=".31"/><path d="m341 651h31v31h-31z" stroke-width=".31"/><path d="m372 651h31v31h-31z" stroke-width=".31"/><path d="m403 651h31v31h-31z" stroke-width=".31"/><path d="m434 651h31v31h-31z" stroke-width=".31"/><path d="m465 651h31v31h-31z" stroke-width=".31"/><path d="m558 651h31v31h-31z" stroke-width=".31"/><path d="m589 651h31v31h-31z" stroke-width=".31"/><path d="m620 651h31v31h-31z" stroke-width=".31"/><path d="m651 651h31v31h-31z" stroke-width=".31"/><path d="m682 651h31v31h-31z" stroke-width=".31"/><path d="m806 651h31v31h-31z" stroke-width=".31"/><path d="m930 651h31v31h-31z" stroke-width=".31"/><path d="m961 651h31v31h-31z" stroke-width=".31"/><path d="m992 651h31v31h-31z" stroke-width=".31"/><path d="m93 682h31v31h-31z" stroke-width=".31"/><path d="m124 682h31v31h-31z" stroke-width=".31"/><path d="m186 682h31v31h-31z" stroke-width=".31"/><path d="m217 682h31v31h-31z" stroke-width=".31"/><path d="m248 682h31v31h-31z" stroke-width=".31"/><path d="m310 682h31v31h-31z" stroke-width=".31"/><path d="m341 682h31v31h-31z" stroke-width=".31"/><path d="m403 682h31v31h-31z" stroke-width=".31"/><path d="m465 682h31v31h-31z" stroke-width=".31"/><path d="m558 682h31v31h-31z" stroke-width=".31"/><path d="m682 682h31v31h-31z" stroke-width=".31"/><path d="m744 682h31v31h-31z" stroke-width=".31"/><path d="m775 682h31v31h-31z" stroke-width=".31"/><path d="m806 682h31v31h-31z" stroke-width=".31"/><path d="m837 682h31v31h-31z" stroke-width=".31"/><path d="m930 682h31v31h-31z" stroke-width=".31"/><path d="m62 713h31v31h-31z" stroke-width=".31"/><path d="m93 713h31v31h-31z" stroke-width=".31"/><path d="m124 713h31v31h-31z" stroke-width=".31"/><path d="m279 713h31v31h-31z" stroke-width=".31"/><path d="m310 713h31v31h-31z" stroke-width=".31"/><path d="m372 713h31v31h-31z" stroke-width=".31"/><path d="m403 713h31v31h-31z" stroke-width=".31"/><path d="m434 713h31v31h-31z" stroke-width=".31"/><path d="m465 713h31v31h-31z" stroke-width=".31"/><path d="m558 713h31v31h-31z" stroke-width=".31"/><path d="m589 713h31v31h-31z" stroke-width=".31"/><path d="m620 713h31v31h-31z" stroke-width=".31"/><path d="m651 713h31v31h-31z" stroke-width=".31"/><path d="m682 713h31v31h-31z" stroke-width=".31"/><path d="m713 713h31v31h-31z" stroke-width=".31"/><path d="m775 713h31v31h-31z" stroke-width=".31"/><path d="m899 713h31v31h-31z" stroke-width=".31"/><path d="m930 713h31v31h-31z" stroke-width=".31"/><path d="m62 744h31v31h-31z" stroke-width=".31"/><path d="m155 744h31v31h-31z" stroke-width=".31"/><path d="m217 744h31v31h-31z" stroke-width=".31"/><path d="m248 744h31v31h-31z" stroke-width=".31"/><path d="m279 744h31v31h-31z" stroke-width=".31"/><path d="m372 744h31v31h-31z" stroke-width=".31"/><path d="m403 744h31v31h-31z" stroke-width=".31"/><path d="m465 744h31v31h-31z" stroke-width=".31"/><path d="m527 744h31v31h-31z" stroke-width=".31"/><path d="m558 744h31v31h-31z" stroke-width=".31"/><path d="m682 744h31v31h-31z" stroke-width=".31"/><path d="m713 744h31v31h-31z" stroke-width=".31"/><path d="m806 744h31v31h-31z" stroke-width=".31"/><path d="m961 744h31v31h-31z" stroke-width=".31"/><path d="m992 744h31v31h-31z" stroke-width=".31"/><path d="m1023 744h31v31h-31z" stroke-width=".31"/><path d="m62 775h31v31h-31z" stroke-width=".31"/><path d="m124 775h31v31h-31z" stroke-width=".31"/><path d="m217 775h31v31h-31z" stroke-width=".31"/><path d="m310 775h31v31h-31z" stroke-width=".31"/><path d="m341 775h31v31h-31z" stroke-width=".31"/><path d="m403 775h31v31h-31z" stroke-width=".31"/><path d="m465 775h31v31h-31z" stroke-width=".31"/><path d="m775 775h31v31h-31z" stroke-width=".31"/><path d="m806 775h31v31h-31z" stroke-width=".31"/><path d="m837 775h31v31h-31z" stroke-width=".31"/><path d="m930 775h31v31h-31z" stroke-width=".31"/><path d="m992 775h31v31h-31z" stroke-width=".31"/><path d="m1054 775h31v31h-31z" stroke-width=".31"/><path d="m62 806h31v31h-31z" stroke-width=".31"/><path d="m93 806h31v31h-31z" stroke-width=".31"/><path d="m124 806h31v31h-31z" stroke-width=".31"/><path d="m186 806h31v31h-31z" stroke-width=".31"/><path d="m248 806h31v31h-31z" stroke-width=".31"/><path d="m279 806h31v31h-31z" stroke-width=".31"/><path d="m341 806h31v31h-31z" stroke-width=".31"/><path d="m372 806h31v31h-31z" stroke-width=".31"/><path d="m403 806h31v31h-31z" stroke-width=".31"/><path d="m434 806h31v31h-31z" stroke-width=".31"/><path d="m527 806h31v31h-31z" stroke-width=".31"/><path d="m558 806h31v31h-31z" stroke-width=".31"/><path d="m620 806h31v31h-31z" stroke-width=".31"/><path d="m651 806h31v31h-31z" stroke-width=".31"/><path d="m744 806h31v31h-31z" stroke-width=".31"/><path d="m806 806h31v31h-31z" stroke-width=".31"/><path d="m837 806h31v31h-31z" stroke-width=".31"/><path d="m868 806h31v31h-31z" stroke-width=".31"/><path d="m899 806h31v31h-31z" stroke-width=".31"/><path d="m930 806h31v31h-31z" stroke-width=".31"/><path d="m1054 806h31v31h-31z" stroke-width=".31"/><path d="m310 837h31v31h-31z" stroke-width=".31"/><path d="m341 837h31v31h-31z" stroke-width=".31"/><path d="m465 837h31v31h-31z" stroke-width=".31"/><path d="m496 837h31v31h-31z" stroke-width=".31"/><path d="m527 837h31v31h-31z" stroke-width=".31"/><path d="m558 837h31v31h-31z" stroke-width=".31"/><path d="m651 837h31v31h-31z" stroke-width=".31"/><path d="m682 837h31v31h-31z" stroke-width=".31"/><path d="m744 837h31v31h-31z" stroke-width=".31"/><path d="m806 837h31v31h-31z" stroke-width=".31"/><path d="m930 837h31v31h-31z" stroke-width=".31"/><path d="m992 837h31v31h-31z" stroke-width=".31"/><path d="m1023 837h31v31h-31z" stroke-width=".31"/><path d="m1054 837h31v31h-31z" stroke-width=".31"/><path d="m341 868h31v31h-31z" stroke-width=".31"/><path d="m372 868h31v31h-31z" stroke-width=".31"/><path d="m403 868h31v31h-31z" stroke-width=".31"/><path d="m434 868h31v31h-31z" stroke-width=".31"/><path d="m465 868h31v31h-31z" stroke-width=".31"/><path d="m527 868h31v31h-31z" stroke-width=".31"/><path d="m558 868h31v31h-31z" stroke-width=".31"/><path d="m620 868h31v31h-31z" stroke-width=".31"/><path d="m775 868h31v31h-31z" stroke-width=".31"/><path d="m806 868h31v31h-31z" stroke-width=".31"/><path d="m868 868h31v31h-31z" stroke-width=".31"/><path d="m930 868h31v31h-31z" stroke-width=".31"/><path d="m961 868h31v31h-31z" stroke-width=".31"/><path d="m1023 868h31v31h-31z" stroke-width=".31"/><path d="m341 899h31v31h-31z" stroke-width=".31"/><path d="m403 899h31v31h-31z" stroke-width=".31"/><path d="m465 899h31v31h-31z" stroke-width=".31"/><path d="m527 899h31v31h-31z" stroke-width=".31"/><path d="m682 899h31v31h-31z" stroke-width=".31"/><path d="m744 899h31v31h-31z" stroke-width=".31"/><path d="m775 899h31v31h-31z" stroke-width=".31"/><path d="m806 899h31v31h-31z" stroke-width=".31"/><path d="m930 899h31v31h-31z" stroke-width=".31"/><path d="m961 899h31v31h-31z" stroke-width=".31"/><path d="m992 899h31v31h-31z" stroke-width=".31"/><path d="m1023 899h31v31h-31z" stroke-width=".31"/><path d="m372 930h31v31h-31z" stroke-width=".31"/><path d="m403 930h31v31h-31z" stroke-width=".31"/><path d="m465 930h31v31h-31z" stroke-width=".31"/><path d="m527 930h31v31h-31z" stroke-width=".31"/><path d="m620 930h31v31h-31z" stroke-width=".31"/><path d="m651 930h31v31h-31z" stroke-width=".31"/><path d="m744 930h31v31h-31z" stroke-width=".31"/><path d="m806 930h31v31h-31z" stroke-width=".31"/><path d="m837 930h31v31h-31z" stroke-width=".31"/><path d="m868 930h31v31h-31z" stroke-width=".31"/><path d="m899 930h31v31h-31z" stroke-width=".31"/><path d="m930 930h31v31h-31z" stroke-width=".31"/><path d="m1023 930h31v31h-31z" stroke-width=".31"/><path d="m403 961h31v31h-31z" stroke-width=".31"/><path d="m434 961h31v31h-31z" stroke-width=".31"/><path d="m465 961h31v31h-31z" stroke-width=".31"/><path d="m558 961h31v31h-31z" stroke-width=".31"/><path d="m589 961h31v31h-31z" stroke-width=".31"/><path d="m651 961h31v31h-31z" stroke-width=".31"/><path d="m682 961h31v31h-31z" stroke-width=".31"/><path d="m713 961h31v31h-31z" stroke-width=".31"/><path d="m775 961h31v31h-31z" stroke-width=".31"/><path d="m837 961h31v31h-31z" stroke-width=".31"/><path d="m930 961h31v31h-31z" stroke-width=".31"/><path d="m992 961h31v31h-31z" stroke-width=".31"/><path d="m1023 961h31v31h-31z" stroke-width=".31"/><path d="m1054 961h31v31h-31z" stroke-width=".31"/><path d="m341 992h31v31h-31z" stroke-width=".31"/><path d="m372 992h31v31h-31z" stroke-width=".31"/><path d="m465 992h31v31h-31z" stroke-width=".31"/><path d="m558 992h31v31h-31z" stroke-width=".31"/><path d="m589 992h31v31h-31z" stroke-width=".31"/><path d="m620 992h31v31h-31z" stroke-width=".31"/><path d="m651 992h31v31h-31z" stroke-width=".31"/><path d="m713 992h31v31h-31z" stroke-width=".31"/><path d="m744 992h31v31h-31z" stroke-width=".31"/><path d="m775 992h31v31h-31z" stroke-width=".31"/><path d="m806 992h31v31h-31z" stroke-width=".31"/><path d="m930 992h31v31h-31z" stroke-width=".31"/><path d="m961 992h31v31h-31z" stroke-width=".31"/><path d="m1023 992h31v31h-31z" stroke-width=".31"/><path d="m1054 992h31v31h-31z" stroke-width=".31"/><path d="m403 1023h31v31h-31z" stroke-width=".31"/><path d="m465 1023h31v31h-31z" stroke-width=".31"/><path d="m527 1023h31v31h-31z" stroke-width=".31"/><path d="m558 1023h31v31h-31z" stroke-width=".31"/><path d="m744 1023h31v31h-31z" stroke-width=".31"/><path d="m775 1023h31v31h-31z" stroke-width=".31"/><path d="m837 1023h31v31h-31z" stroke-width=".31"/><path d="m899 1023h31v31h-31z" stroke-width=".31"/><path d="m930 1023h31v31h-31z" stroke-width=".31"/><path d="m961 1023h31v31h-31z" stroke-width=".31"/><path d="m992 1023h31v31h-31z" stroke-width=".31"/><path d="m310 1054h31v31h-31z" stroke-width=".31"/><path d="m372 1054h31v31h-31z" stroke-width=".31"/><path d="m403 1054h31v31h-31z" stroke-width=".31"/><path d="m434 1054h31v31h-31z" stroke-width=".31"/><path d="m465 1054h31v31h-31z" stroke-width=".31"/><path d="m589 1054h31v31h-31z" stroke-width=".31"/><path d="m682 1054h31v31h-31z" stroke-width=".31"/><path d="m775 1054h31v31h-31z" stroke-width=".31"/><path d="m806 1054h31v31h-31z" stroke-width=".31"/><path d="m868 1054h31v31h-31z" stroke-width=".31"/><path d="m930 1054h31v31h-31z" stroke-width=".31"/><path d="m961 1054h31v31h-31z" stroke-width=".31"/><path d="m1023 1054h31v31h-31z" stroke-width=".31"/><g transform="matrix(2.17 0 0 2.17 62 62)"><path d="m15 15h70v70h-70z" fill="none"/><path d="m85 0h-70-15v15 70 15h15 70 15v-15-70-15zm0 85h-70v-70h70z"/></g><g transform="matrix(2.17 0 0 2.17 868 62)"><path d="m15 15h70v70h-70z" fill="none"/><path d="m85 0h-70-15v15 70 15h15 70 15v-15-70-15zm0 85h-70v-70h70z"/></g><g transform="matrix(2.17 0 0 2.17 62 868)"><path d="m15 15h70v70h-70z" fill="none"/><path d="m85 0h-70-15v15 70 15h15 70 15v-15-70-15zm0 85h-70v-70h70z"/></g><path d="m124 124h93v93h-93z" stroke-width=".93"/><path d="m930 124h93v93h-93z" stroke-width=".93"/><path d="m124 930h93v93h-93z" stroke-width=".93"/></g></svg>